<svg width="361" height="80" viewBox="0 0 361 80" fill="none" xmlns="http://www.w3.org/2000/svg">
<path d="M123.013 15.7756C118.398 15.7756 111.864 17.7129 108.631 23.1661L107.555 24.9761V16.8628H93.8327V80H107.555V56.1978L108.631 58.0136C111.864 63.461 118.398 65.3925 123.013 65.3925C135.643 65.3925 143.808 55.6368 143.808 40.5378C143.808 25.4388 135.649 15.7756 123.013 15.7756ZM118.144 55.0065C114.744 55.0065 106.833 53.5955 106.833 40.5436C106.833 31.4067 110.956 26.1674 118.144 26.1674C126.02 26.1674 129.542 33.3902 129.542 40.5436C129.542 49.1947 124.962 55.0065 118.144 55.0065ZM301.692 22.4953C297.326 17.869 291.254 15.4229 284.147 15.4229C269.435 15.4229 258.754 25.8725 258.754 40.2718C258.754 55.5327 268.967 65.3925 284.777 65.3925C295.487 65.3925 304.144 59.708 308.093 50.1373H295.556C293.526 53.2832 289.554 55.0065 284.326 55.0065C278.821 55.0065 273.049 51.7161 272.569 44.3661L272.529 43.7473H308.579C308.961 35.1366 306.521 27.6073 301.692 22.4953ZM272.668 35.8942L272.749 35.2407C273.512 29.2208 277.774 25.6296 284.147 25.6296C290.519 25.6296 294.741 29.4232 294.914 35.2985L294.932 35.8942H272.668ZM212.121 22.4953C207.755 17.869 201.683 15.4229 194.576 15.4229C179.864 15.4229 169.183 25.8725 169.183 40.2718C169.183 55.5327 179.396 65.3925 195.206 65.3925C205.916 65.3925 214.573 59.708 218.523 50.1373H205.986C203.956 53.2832 199.983 55.0065 194.755 55.0065C189.25 55.0065 183.479 51.7161 182.993 44.3661L182.952 43.7473H219.003C219.384 35.1366 216.956 27.6073 212.121 22.4953ZM183.097 35.8942L183.178 35.2407C183.941 29.2208 188.203 25.6296 194.576 25.6296C200.949 25.6296 205.17 29.4232 205.344 35.2985L205.361 35.8942H183.097ZM149.562 64.2244V0H163.285V64.2244H149.562ZM71.8983 64.2244V16.8628H85.7136V64.2244H71.8983ZM36.1891 16.8628H49.3683V28.5095L50.4844 25.699C52.8438 19.7542 57.0132 16.7471 63.224 16.5043C63.7387 16.5043 64.3228 16.5043 64.8779 16.5447V29.8916C63.5999 29.7586 62.5937 29.6892 61.3966 29.6892C53.451 29.6892 49.9061 33.0085 49.9061 40.4568V64.2244H36.1834L36.1891 16.8628ZM28.6888 64.2244C12.7975 64.2244 11.5946 53.023 11.5946 52.9073C0.983086 52.9073 0 45.0137 0 38.1148V3.6085H13.7227V16.8628H28.5384V26.2599H13.7227L13.7401 52.9073H30.2212V64.1897C29.7614 64.2101 28.6837 64.2244 28.6888 64.2244ZM346.411 64.2244V39.3755C346.411 33.1878 346.411 26.1732 338.349 26.1732C331.803 26.1732 328.756 30.5393 328.756 39.919V64.2302H315.033V16.8628H328.756V24.7737L329.831 22.9811C331.826 19.6559 336.834 15.7756 344.392 15.7756C355.577 15.7756 360.133 21.5411 360.133 35.6686V64.2186L346.411 64.2244ZM71.8983 10.7445V0H85.621V10.7445H71.8983ZM253.561 64.2244C237.67 64.2244 236.467 53.023 236.467 52.9073C225.855 52.9073 224.878 45.0195 224.878 38.1206V3.6085H238.601V16.8628H253.417V26.2599H238.595L238.612 52.9073H255.094V64.1897C254.573 64.2128 254.064 64.2244 253.561 64.2244Z" fill="#F2F1EE"/>
</svg>
